# AST/ASF file generated using VICON BodyLanguage
# -----------------------------------------------
:version 1.10
:name VICON
:units
  mass 1.0
  length 0.45
  angle deg
:documentation
   .ast/.asf automatically generated from VICON data using
   VICON BodyBuilder and BodyLanguage model FoxedUp or BRILLIANT.MOD
:root
   order TX TY TZ RX RY RZ
   axis XYZ
   position 0 0 0  
   orientation 0 0 0 
:bonedata
  begin
     id 1 
     name lhipjoint
     direction 0.577973 -0.728611 0.367523 
     length 2.48544 
     axis 0 0 0  XYZ
  end
  begin
     id 2 
     name lfemur
     direction 0.34202 -0.939693 0  
     length 7.1921  
     axis 0 0 20  XYZ
    dof rx ry rz
    limits (-160.0 20.0)
           (-70.0 70.0)
           (-60.0 70.0)
  end
  begin
     id 3 
     name ltibia
     direction 0.34202 -0.939693 0   
     length 7.71059   
     axis 0 0 20   XYZ
    dof rx
    limits (-10.0 170.0)
  end
  begin
     id 4 
     name lfoot
     direction 0.089538 -0.246004 0.965124   
     length 2.19909   
     axis -90 7.62852e-016 20   XYZ
    dof rx rz
    limits (-45.0 90.0)
           (-70.0 20.0)
  end
  begin
     id 5 
     name ltoes
     direction 1.53544e-011 -4.21829e-011 1   
     length 1.10116   
     axis -90 7.62852e-016 20   XYZ
    dof rx
    limits (-90.0 20.0)
  end
  begin
     id 6 
     name rhipjoint
     direction -0.554414 -0.743062 0.374812   
     length 2.4371  
     axis 0 0 0  XYZ 
  end
  begin
     id 7 
     name rfemur
     direction -0.34202 -0.939693 0   
     length 7.47254   
     axis 0 0 -20   XYZ
    dof rx ry rz
    limits (-160.0 20.0)
           (-70.0 70.0)
           (-70.0 60.0)
  end
  begin
     id 8 
     name rtibia
     direction -0.34202 -0.939693 0   
     length 7.65855   
     axis 0 0 -20   XYZ
    dof rx
    limits (-10.0 170.0)
 end
 begin
     id 9 
     name rfoot
     direction -0.133779 -0.367555 0.92033   
     length 2.43006  
     axis -90 -7.62852e-016 -20   XYZ
    dof rx rz
    limits (-45.0 90.0)
           (-20.0 70.0)
  end
  begin
     id 10 
     name rtoes
     direction -1.53563e-011 -4.21889e-011 1   
     length 1.19625   
     axis -90 -7.62852e-016 -20   XYZ
    dof rx
    limits (-90.0 20.0)
  end
  begin
     id 11 
     name lowerback
     direction 0.0249066 0.998043 -0.0573585   
     length 2.08485   
     axis 0 0 0   XYZ
    dof rx ry rz
    limits (-20.0 45.0)
           (-30.0 30.0)
           (-30.0 30.0)
  end
  begin
     id 12 
     name upperback
     direction 0.0237884 0.999673 0.00943178   
     length 2.08515   
     axis 0 0 0   XYZ
    dof rx ry rz
    limits (-20.0 45.0)
           (-30.0 30.0)
           (-30.0 30.0)
  end
  begin
     id 13 
     name thorax
     direction 0.0106671 0.999301 0.0358174   
     length 2.09037   
     axis 0 0 0   XYZ
    dof rx ry rz
    limits (-20.0 45.0)
           (-30.0 30.0)
           (-30.0 30.0)
  end
  begin
     id 14 
     name lowerneck
     direction -0.0580016 0.987052 0.149546   
     length 1.84454   
     axis 0 0 0   XYZ
    dof rx ry rz
    limits (-20.0 45.0)
           (-30.0 30.0)
           (-30.0 30.0)
  end
  begin
     id 15 
     name upperneck
     direction 0.079456 0.981963 -0.171567   
     length 1.88141   
     axis 0 0 0   XYZ
    dof rx ry rz
    limits (-20.0 45.0)
           (-30.0 30.0)
           (-30.0 30.0)
  end
  begin
     id 16
     name head
     direction 0.0262167 0.9967 -0.0768276  
     length 1.89541  
     axis 0 0 0   XYZ
    dof rx ry rz
    limits (-20.0 45.0)
           (-30.0 30.0)
           (-30.0 30.0)
  end
  begin
     id 17 
     name lclavicle
     direction 0.946135 0.322134 -0.0325326  
     length 3.949  
     axis 0 0 0   XYZ
    dof ry rz
    limits (-20.0 10.0)
           (0.0 20.0)
  end
  begin
     id 18 
     name lhumerus
     direction 1 -4.48964e-011 1.94005e-028   
     length 5.10995   
     axis 180 -30 -90   XYZ
    dof rx ry rz
    limits (-60.0 90.0)
           (-90.0 90.0)
           (-90.0 90.0)
  end
  begin
     id 19
     name lradius
     direction 1 -4.48976e-011 2.87852e-027   
     length 3.21207   
     axis 180 -30 -90   XYZ
    dof rx
    limits (-10.0 170.0)
  end
  begin
     id 20
     name lwrist
     direction 1 -4.48963e-011 1.9975e-027   
     length 1.60604   
     axis 2.96054e-016 90 90   XYZ
    dof ry
    limits (-180.0 0.0)
 end
  begin
     id 21 
     name lhand
     direction 1 -4.48919e-011 4.00227e-027   
     length 0.63349   
     axis -2.5488e-015 90 90   XYZ
    dof rx rz
    limits (-90.0 90.0)
           (-45.0 45.0)
  end
  begin
     id 22 
     name lfingers
     direction 1 -4.49037e-011 7.9652e-027   
     length 0.510736   
     axis -5.0975e-015 90 90   XYZ
    dof rx
    limits (0.0 90.0)
  end
  begin
     id 23
     name lthumb
     direction 0.707107 -6.34922e-011 0.707107   
     length 0.733318   
     axis -90 45 -4.48553e-014   XYZ
    dof rx rz
    limits (-45.0 45.0)
           (-45.0 45.0)
  end
  begin
     id 24 
     name rclavicle
     direction -0.940085 0.328911 -0.0897654   
     length 3.93848  
     axis 0 0 0   XYZ 
    dof ry rz
    limits (-10.0 20.0)
           (-20.0 0.0)
  end
  begin
     id 25 
     name rhumerus
     direction -1 -4.48958e-011 3.02044e-027  
     length 5.25109   
     axis 180 30 90   XYZ
    dof rx ry rz
    limits (-90.0 60.0)
           (-90.0 90.0)
           (-90.0 90.0)
  end
  begin
     id 26 
     name rradius
     direction -1 -4.4897e-011 9.78352e-028   
     length 3.28364   
     axis 180 30 90   XYZ
    dof rx
    limits (-10.0 170.0)
  end
  begin
     id 27 
     name rwrist
     direction -1 -4.48943e-011 1.99918e-027   
     length 1.64182   
     axis 2.96054e-016 -90 -90   XYZ
    dof ry
    limits (-180.0 0.0)
  end
  begin
     id 28
     name rhand
     direction -1 -4.49024e-011 3.98478e-027   
     length 0.599745   
     axis -2.5488e-015 -90 -90   XYZ
    dof rx rz
    limits (-90.0 90.0)
           (-45.0 45.0)
  end
  begin
     id 29
     name rfingers
     direction -1 -4.48914e-011 8.00621e-027   
     length 0.48353   
     axis -5.0975e-015 -90 -90   XYZ
    dof rx
    limits (0.0 90.0)
  end
  begin
     id 30
     name rthumb
     direction -0.707107 -6.34992e-011 0.707107   
     length 0.694255   
     axis -90 -45 4.48553e-014   XYZ
    dof rx rz
    limits (-45.0 45.0)
           (-45.0 45.0)
  end
:hierarchy
  begin
    root lhipjoint rhipjoint lowerback
    lhipjoint lfemur
    lfemur ltibia
    ltibia lfoot
    lfoot ltoes
    rhipjoint rfemur
    rfemur rtibia
    rtibia rfoot
    rfoot rtoes
    lowerback upperback
    upperback thorax
    thorax lowerneck lclavicle rclavicle
    lowerneck upperneck
    upperneck head
    lclavicle lhumerus
    lhumerus lradius
    lradius lwrist
    lwrist lhand lthumb
    lhand lfingers
    rclavicle rhumerus
    rhumerus rradius
    rradius rwrist
    rwrist rhand rthumb
    rhand rfingers
  end

#!OML:ASF E:\CV Data\Top Level 1\Subject 1\Session 1\player.ASF
:FULLY-SPECIFIED
:DEGREES
971
root 6.24477 16.1559 -8.84681 119.128 -79.4915 -139.868
lowerback 15.3282 0.451514 8.34566
upperback 5.94178 1.48762 3.52481
thorax -2.10964 0.615388 -1.23143
lowerneck -17.131 15.5107 -4.40655
upperneck 23.611 21.0172 7.22048
head 8.88843 10.2107 5.52113
rclavicle -1.38155e-014 3.57812e-015
rhumerus 170.104 183.292 85.9286
rradius 30.5404
rwrist -13.1816
rhand -33.5159 21.4571
rfingers 7.12502
rthumb -6.71225 -8.41656
lclavicle -1.38155e-014 3.57812e-015
lhumerus 28.0684 -25.0833 50.06
lradius 24.8655
lwrist -25.671
lhand -10.5852 3.99423
lfingers 7.12502
lthumb 15.4201 33.3991
rfemur 0.404474 1.98959 31.2255
rtibia 49.6603
rfoot -27.0137 -0.744077
rtoes 1.84977
lfemur -56.3316 13.4353 -3.29469
ltibia 22.8001
lfoot -9.98843 17.0713
ltoes -15.5002
972
root 6.23643 16.1801 -8.80754 117.692 -79.7313 -138.204
lowerback 15.6772 0.419851 8.43589
upperback 6.12009 1.46691 3.51595
thorax -2.10191 0.602686 -1.29018
lowerneck -17.235 15.4622 -4.44291
upperneck 23.0585 21.02 6.93615
head 8.74877 10.2008 5.40563
rclavicle -5.09386e-015 1.98785e-014
rhumerus 169.692 185.595 86.7285
rradius 28.793
rwrist -12.5043
rhand -33.2586 21.1491
rfingers 7.12502
rthumb -6.46389 -8.73223
lclavicle -5.09386e-015 1.98785e-014
lhumerus 27.8366 -24.3724 48.4085
lradius 24.0575
lwrist -25.6241
lhand -10.1878 4.48206
lfingers 7.12502
lthumb 15.8028 33.857
rfemur 0.355591 1.91444 31.0617
rtibia 49.3329
rfoot -26.8874 -0.918185
rtoes 1.49115
lfemur -57.0594 13.6498 -3.37091
ltibia 22.7699
lfoot -9.73804 17.1321
ltoes -15.4286
973
root 6.22756 16.207 -8.76786 116.044 -79.9863 -136.292
lowerback 16.0164 0.377258 8.53662
upperback 6.27972 1.4354 3.49019
thorax -2.10824 0.58493 -1.37068
lowerneck -17.3312 15.4138 -4.47583
upperneck 22.5154 21.0166 6.66517
head 8.6106 10.1896 5.29409
rclavicle 1.63252e-014 4.8901e-014
rhumerus 169.227 188.133 87.6277
rradius 27.0669
rwrist -11.4038
rhand -33.072 20.758
rfingers 7.12502
rthumb -6.28368 -9.12879
lclavicle 1.63252e-014 4.8901e-014
lhumerus 27.4824 -23.5756 46.8163
lradius 23.32
lwrist -25.8082
lhand -9.87092 4.91493
lfingers 7.12502
lthumb 16.1079 34.2655
rfemur 0.291449 1.82776 30.893
rtibia 48.969
rfoot -26.7451 -1.10413
rtoes 1.12707
lfemur -57.7893 13.8747 -3.48869
ltibia 22.809
lfoot -9.55284 16.9784
ltoes -15.2794
974
root 6.21812 16.2369 -8.72824 114.296 -80.2437 -134.252
lowerback 16.3532 0.336136 8.62227
upperback 6.42301 1.40632 3.45405
thorax -2.13036 0.568175 -1.45417
lowerneck -17.4219 15.3648 -4.49689
upperneck 21.9931 21.0065 6.39848
head 8.48033 10.1756 5.18398
rclavicle -1.40019e-014 -6.83819e-014
rhumerus 168.702 190.907 88.6487
rradius 25.3818
rwrist -10.0441
rhand -32.9208 20.3166
rfingers 7.12502
rthumb -6.13779 -9.57446
lclavicle -1.40019e-014 -6.83819e-014
lhumerus 27.0036 -22.6414 45.3371
lradius 22.6154
lwrist -26.2512
lhand -9.63148 5.27331
lfingers 7.12502
lthumb 16.3385 34.6051
rfemur 0.222788 1.7523 30.7186
rtibia 48.5671
rfoot -26.5824 -1.29861
rtoes 0.782892
lfemur -58.4964 14.1222 -3.63596
ltibia 22.8936
lfoot -9.40782 16.6601
ltoes -15.1576
975
root 6.20884 16.2698 -8.68792 112.471 -80.5171 -132.085
lowerback 16.6563 0.299232 8.65183
upperback 6.55111 1.37386 3.42765
thorax -2.15327 0.549325 -1.49522
lowerneck -17.521 15.3203 -4.51277
upperneck 21.5051 21.0031 6.12223
head 8.36496 10.1622 5.0754
rclavicle -6.69035e-015 -4.53229e-014
rhumerus 168.118 193.872 89.8367
rradius 23.763
rwrist -8.61263
rhand -32.7393 19.836
rfingers 7.12502
rthumb -5.96249 -10.0601
lclavicle -6.69035e-015 -4.53229e-014
lhumerus 26.3882 -21.5394 44.011
lradius 21.9386
lwrist -26.8903
lhand -9.45443 5.57452
lfingers 7.12502
lthumb 16.509 34.8922
rfemur 0.116577 1.68422 30.5184
rtibia 48.1322
rfoot -26.3951 -1.49847
rtoes 0.442106
lfemur -59.1759 14.3223 -3.75991
ltibia 22.9915
lfoot -9.3 16.2958
ltoes -15.0703
